<svg width="77" height="77" viewBox="0 0 77 77" fill="none" xmlns="http://www.w3.org/2000/svg">
<path d="M60.544 38.084C60.5398 37.0343 59.6859 36.3051 58.6358 36.3093L22.3863 36.4535L36.335 22.7468C37.086 22.0122 37.0986 20.7785 36.3652 20.029C35.9905 19.6458 35.4939 19.4399 34.9982 19.4418C34.5211 19.4437 34.0436 19.6167 33.6767 19.9764L16.3767 36.8989C16.0086 37.2586 15.8029 37.7493 15.805 38.2638C15.807 38.7782 16.0166 39.2684 16.3875 39.6252L33.8213 56.4113C34.5751 57.1388 35.7799 57.1167 36.5094 56.3593C37.2368 55.6037 37.2143 54.3399 36.4575 53.6115L22.4005 40.018L58.65 39.8738C59.7001 39.8697 60.5482 39.1338 60.544 38.084ZM76.1947 38.0218C76.2781 58.9866 59.2891 76.1113 38.3242 76.1947C17.3594 76.2781 0.234696 59.2891 0.151298 38.3243C0.0679 17.3594 17.0569 0.234706 38.0217 0.151308C58.9866 0.0679103 76.1113 17.0569 76.1947 38.0218ZM72.3925 38.0369C72.3175 19.1683 56.9054 3.87842 38.0369 3.95348C19.1683 4.02854 3.87841 19.4406 3.95347 38.3091C4.02853 57.1777 19.4406 72.4676 38.3091 72.3925C57.1777 72.3175 72.4676 56.9054 72.3925 38.0369Z" fill="white"/>
</svg>
