<svg width="77" height="77" viewBox="0 0 77 77" fill="none" xmlns="http://www.w3.org/2000/svg">
<path d="M15.8019 38.084C15.8061 37.0343 16.6601 36.3051 17.7101 36.3093L53.9596 36.4535L40.011 22.7468C39.26 22.0122 39.2474 20.7785 39.9808 20.029C40.3554 19.6458 40.852 19.4399 41.3478 19.4418C41.8248 19.4437 42.3024 19.6167 42.6693 19.9764L59.9693 36.8989C60.3373 37.2586 60.543 37.7493 60.541 38.2638C60.5389 38.7782 60.3294 39.2684 59.9584 39.6252L42.5246 56.4113C41.7708 57.1388 40.5661 57.1167 39.8366 56.3593C39.1091 55.6037 39.1317 54.3399 39.8885 53.6115L53.9455 40.018L17.6959 39.8738C16.6459 39.8697 15.7978 39.1338 15.8019 38.084ZM0.15125 38.0218C0.0678523 58.9866 17.0569 76.1113 38.0217 76.1947C58.9865 76.2781 76.1113 59.2891 76.1946 38.3243C76.278 17.3594 59.289 0.234706 38.3242 0.151308C17.3594 0.0679103 0.234648 17.0569 0.15125 38.0218ZM3.95342 38.0369C4.02848 19.1683 19.4405 3.87842 38.3091 3.95348C57.1776 4.02854 72.4675 19.4406 72.3925 38.3091C72.3174 57.1777 56.9054 72.4676 38.0368 72.3925C19.1683 72.3175 3.87836 56.9054 3.95342 38.0369Z" fill="white"/>
</svg>
